<svg width="42" height="25" viewBox="0 0 42 25" fill="none" xmlns="http://www.w3.org/2000/svg">
<path d="M1.11222 1.54093C1.69825 0.955088 2.49296 0.625977 3.3216 0.625977C4.15024 0.625977 4.94495 0.955088 5.53097 1.54093L20.9997 17.0097L36.4685 1.54093C37.0579 0.971691 37.8472 0.656707 38.6666 0.663827C39.486 0.670947 40.2698 0.999601 40.8492 1.579C41.4286 2.1584 41.7572 2.94219 41.7643 3.76155C41.7715 4.58092 41.4565 5.3703 40.8872 5.95968L23.2091 23.6378C22.6231 24.2237 21.8284 24.5528 20.9997 24.5528C20.1711 24.5528 19.3764 24.2237 18.7903 23.6378L1.11222 5.95968C0.526376 5.37366 0.197266 4.57895 0.197266 3.75031C0.197266 2.92167 0.526376 2.12696 1.11222 1.54093Z" fill="#333333"/>
</svg>
