<svg width="70" height="70" viewBox="0 0 70 70" fill="none" xmlns="http://www.w3.org/2000/svg">
<path d="M55.417 5.83301H14.5837C12.9728 5.83301 11.667 7.13884 11.667 8.74967V61.2497C11.667 62.8605 12.9728 64.1663 14.5837 64.1663H55.417C57.0278 64.1663 58.3337 62.8605 58.3337 61.2497V8.74967C58.3337 7.13884 57.0278 5.83301 55.417 5.83301Z" stroke="#FCD54D" stroke-width="4" stroke-linejoin="round"/>
<path d="M35.0003 27.7077C36.5474 27.7077 38.0311 27.0931 39.1251 25.9991C40.2191 24.9052 40.8337 23.4214 40.8337 21.8743C40.8337 20.3273 40.2191 18.8435 39.1251 17.7496C38.0311 16.6556 36.5474 16.041 35.0003 16.041C33.4532 16.041 31.9695 16.6556 30.8755 17.7496C29.7816 18.8435 29.167 20.3273 29.167 21.8743C29.167 23.4214 29.7816 24.9052 30.8755 25.9991C31.9695 27.0931 33.4532 27.7077 35.0003 27.7077Z" stroke="#FCD54D" stroke-width="4" stroke-linejoin="round"/>
<path d="M26.25 53.958H36.4583M43.75 36.458C43.75 34.1374 42.8281 31.9118 41.1872 30.2708C39.5462 28.6299 37.3206 27.708 35 27.708C32.6794 27.708 30.4538 28.6299 28.8128 30.2708C27.1719 31.9118 26.25 34.1374 26.25 36.458H43.75ZM26.25 45.208H43.75H26.25Z" stroke="#FCD54D" stroke-width="4" stroke-linecap="round" stroke-linejoin="round"/>
</svg>
