<svg width="70" height="70" viewBox="0 0 70 70" fill="none" xmlns="http://www.w3.org/2000/svg">
<path d="M5.83398 8.75033H29.1673C29.1673 7.20323 29.7819 5.7195 30.8759 4.62554C31.9698 3.53157 33.4536 2.91699 35.0006 2.91699C36.5477 2.91699 38.0315 3.53157 39.1254 4.62554C40.2194 5.7195 40.834 7.20323 40.834 8.75033H64.1673V14.5837H61.2506V46.667H44.4798L49.584 64.167H43.7506L38.6465 46.667H31.3548L26.2506 64.167H20.4173L25.5215 46.667H8.75065V14.5837H5.83398V8.75033ZM14.584 14.5837V40.8337H55.4173V14.5837H14.584ZM34.5632 34.5628C34.4308 34.7002 34.2723 34.8097 34.097 34.8848C33.9216 34.9599 33.7331 34.9992 33.5423 35.0003C33.1555 35.0003 32.7846 34.8467 32.5111 34.5732C32.2376 34.2997 32.084 33.9288 32.084 33.542V21.8753C32.084 21.4886 32.2376 21.1176 32.5111 20.8441C32.7846 20.5706 33.1555 20.417 33.5423 20.417C33.9506 20.417 34.3007 20.592 34.5632 20.8545L38.6465 24.9087C39.5798 25.842 40.5132 26.7753 40.5132 27.7087C40.5132 28.642 39.5798 29.5753 38.6465 30.5087L34.5632 34.5628V34.5628Z" fill="#FCD54D"/>
</svg>
