<svg width="70" height="70" viewBox="0 0 70 70" fill="none" xmlns="http://www.w3.org/2000/svg">
<path fill-rule="evenodd" clip-rule="evenodd" d="M21.7723 3.109C25.1935 2.9515 26.2844 2.9165 34.9994 2.9165C43.7144 2.9165 44.8052 2.95442 48.2235 3.109C51.6419 3.26359 53.9752 3.809 56.0169 4.59942C58.1548 5.40734 60.0944 6.67025 61.6985 8.30359C63.3319 9.90484 64.5919 11.8415 65.3969 13.9823C66.1902 16.024 66.7327 18.3573 66.8902 21.7698C67.0477 25.1969 67.0827 26.2878 67.0827 34.9998C67.0827 43.7148 67.0448 44.8057 66.8902 48.2269C66.7356 51.6394 66.1902 53.9728 65.3969 56.0144C64.5918 58.1555 63.3298 60.0954 61.6985 61.699C60.0944 63.3323 58.1548 64.5923 56.0169 65.3973C53.9752 66.1907 51.6419 66.7332 48.2294 66.8907C44.8052 67.0482 43.7144 67.0832 34.9994 67.0832C26.2844 67.0832 25.1935 67.0453 21.7723 66.8907C18.3598 66.7361 16.0264 66.1907 13.9848 65.3973C11.8437 64.5922 9.90383 63.3302 8.30018 61.699C6.66796 60.0968 5.40485 58.1578 4.59893 56.0173C3.80852 53.9757 3.26602 51.6423 3.10852 48.2298C2.95102 44.8028 2.91602 43.7119 2.91602 34.9998C2.91602 26.2848 2.95393 25.194 3.10852 21.7757C3.2631 18.3573 3.80852 16.024 4.59893 13.9823C5.40604 11.8417 6.67011 9.90283 8.3031 8.30067C9.90447 6.6688 11.8424 5.40571 13.9819 4.59942C16.0235 3.809 18.3569 3.2665 21.7694 3.109H21.7723ZM47.9639 8.884C44.5806 8.72942 43.5656 8.69734 34.9994 8.69734C26.4331 8.69734 25.4181 8.72942 22.0348 8.884C18.9052 9.02692 17.2077 9.549 16.076 9.98942C14.5798 10.5728 13.5094 11.264 12.3864 12.3869C11.322 13.4225 10.5028 14.6832 9.98893 16.0765C9.54852 17.2082 9.02643 18.9057 8.88352 22.0353C8.72893 25.4186 8.69685 26.4336 8.69685 34.9998C8.69685 43.5661 8.72893 44.5811 8.88352 47.9644C9.02643 51.094 9.54852 52.7915 9.98893 53.9232C10.5023 55.3144 11.3219 56.5773 12.3864 57.6128C13.4219 58.6773 14.6848 59.4969 16.076 60.0103C17.2077 60.4507 18.9052 60.9728 22.0348 61.1157C25.4181 61.2703 26.4302 61.3023 34.9994 61.3023C43.5685 61.3023 44.5806 61.2703 47.9639 61.1157C51.0935 60.9728 52.791 60.4507 53.9227 60.0103C55.4189 59.4269 56.4894 58.7357 57.6123 57.6128C58.6769 56.5773 59.4964 55.3144 60.0098 53.9232C60.4502 52.7915 60.9723 51.094 61.1152 47.9644C61.2698 44.5811 61.3019 43.5661 61.3019 34.9998C61.3019 26.4336 61.2698 25.4186 61.1152 22.0353C60.9723 18.9057 60.4502 17.2082 60.0098 16.0765C59.4264 14.5803 58.7352 13.5098 57.6123 12.3869C56.5766 11.3225 55.316 10.5034 53.9227 9.98942C52.791 9.549 51.0935 9.02692 47.9639 8.884ZM30.9014 44.8903C33.19 45.8429 35.7384 45.9715 38.1112 45.254C40.4841 44.5365 42.5342 43.0175 43.9115 40.9564C45.2888 38.8953 45.9078 36.4199 45.6628 33.9531C45.4178 31.4862 44.324 29.181 42.5681 27.4311C41.4488 26.3125 40.0954 25.456 38.6053 24.9232C37.1153 24.3904 35.5256 24.1946 33.9508 24.35C32.376 24.5053 30.8552 25.0079 29.4979 25.8215C28.1407 26.6351 26.9807 27.7395 26.1015 29.0552C25.2223 30.371 24.6457 31.8653 24.4134 33.4306C24.181 34.9959 24.2985 36.5932 24.7576 38.1076C25.2166 39.622 26.0058 41.0158 27.0681 42.1886C28.1305 43.3614 29.4397 44.2841 30.9014 44.8903ZM23.3385 23.339C24.8698 21.8077 26.6878 20.593 28.6886 19.7642C30.6893 18.9355 32.8337 18.5089 34.9994 18.5089C37.165 18.5089 39.3094 18.9355 41.3102 19.7642C43.3109 20.593 45.1289 21.8077 46.6602 23.339C48.1915 24.8703 49.4062 26.6883 50.235 28.689C51.0637 30.6898 51.4903 32.8342 51.4903 34.9998C51.4903 37.1655 51.0637 39.3099 50.235 41.3106C49.4062 43.3114 48.1915 45.1294 46.6602 46.6607C43.5675 49.7533 39.373 51.4908 34.9994 51.4908C30.6257 51.4908 26.4312 49.7533 23.3385 46.6607C20.2459 43.568 18.5084 39.3735 18.5084 34.9998C18.5084 30.6262 20.2459 26.4317 23.3385 23.339ZM55.1477 20.9648C55.5272 20.6069 55.831 20.1764 56.0411 19.6989C56.2512 19.2215 56.3634 18.7067 56.371 18.1851C56.3786 17.6634 56.2815 17.1456 56.0853 16.6622C55.8892 16.1788 55.5981 15.7397 55.2292 15.3708C54.8604 15.0019 54.4212 14.7108 53.9378 14.5147C53.4544 14.3186 52.9366 14.2214 52.415 14.229C51.8934 14.2366 51.3786 14.3488 50.9011 14.559C50.4236 14.7691 49.9932 15.0729 49.6352 15.4523C48.939 16.1903 48.5579 17.1706 48.5727 18.1851C48.5874 19.1995 48.997 20.1682 49.7144 20.8856C50.4318 21.603 51.4005 22.0126 52.415 22.0274C53.4294 22.0422 54.4097 21.661 55.1477 20.9648Z" fill="#B7B7B7"/>
</svg>
