<svg width="46" height="46" viewBox="0 0 46 46" fill="none" xmlns="http://www.w3.org/2000/svg">
<g filter="url(#filter0_d_247_1623)">
<path d="M26.7479 15.3879C22.6164 15.3879 19.2448 18.7596 19.2448 22.8911C19.2448 27.0227 22.6164 30.3943 26.7479 30.3943C30.8793 30.3943 34.2509 27.0227 34.2509 22.8911C34.2509 18.7596 30.8793 15.3879 26.7479 15.3879ZM49.2514 22.8911C49.2514 19.784 49.2795 16.7051 49.1051 13.6036C48.9306 10.0012 48.1088 6.80399 45.4745 4.16971C42.8347 1.52981 39.6432 0.713629 36.0408 0.539136C32.9338 0.364643 29.8549 0.392788 26.7535 0.392788C23.6464 0.392788 20.5675 0.364643 17.4661 0.539136C13.8638 0.713629 10.6667 1.53543 8.03244 4.16971C5.39258 6.80962 4.57642 10.0012 4.40193 13.6036C4.22744 16.7107 4.25558 19.7896 4.25558 22.8911C4.25558 25.9926 4.22744 29.0772 4.40193 32.1786C4.57642 35.7811 5.39821 38.9782 8.03244 41.6125C10.6723 44.2524 13.8638 45.0686 17.4661 45.2431C20.5732 45.4176 23.6521 45.3894 26.7535 45.3894C29.8605 45.3894 32.9394 45.4176 36.0408 45.2431C39.6432 45.0686 42.8403 44.2468 45.4745 41.6125C48.1144 38.9726 48.9306 35.7811 49.1051 32.1786C49.2852 29.0772 49.2514 25.9982 49.2514 22.8911V22.8911ZM26.7479 34.4358C20.3593 34.4358 15.2034 29.2798 15.2034 22.8911C15.2034 16.5024 20.3593 11.3464 26.7479 11.3464C33.1364 11.3464 38.2923 16.5024 38.2923 22.8911C38.2923 29.2798 33.1364 34.4358 26.7479 34.4358ZM38.7651 13.5698C37.2735 13.5698 36.069 12.3653 36.069 10.8736C36.069 9.38199 37.2735 8.17742 38.7651 8.17742C40.2567 8.17742 41.4613 9.38199 41.4613 10.8736C41.4617 11.2278 41.3923 11.5786 41.2569 11.9059C41.1216 12.2333 40.923 12.5307 40.6726 12.7811C40.4221 13.0316 40.1247 13.2301 39.7974 13.3655C39.4701 13.5008 39.1193 13.5703 38.7651 13.5698V13.5698Z" fill="#333333"/>
</g>
<defs>
<filter id="filter0_d_247_1623" x="0.253906" y="0.391113" width="46" height="46" filterUnits="userSpaceOnUse" color-interpolation-filters="sRGB">
<feFlood flood-opacity="0" result="BackgroundImageFix"/>
<feColorMatrix in="SourceAlpha" type="matrix" values="0 0 0 0 0 0 0 0 0 0 0 0 0 0 0 0 0 0 127 0" result="hardAlpha"/>
<feOffset dy="4"/>
<feGaussianBlur stdDeviation="2"/>
<feComposite in2="hardAlpha" operator="out"/>
<feColorMatrix type="matrix" values="0 0 0 0 0 0 0 0 0 0 0 0 0 0 0 0 0 0 0.25 0"/>
<feBlend mode="normal" in2="BackgroundImageFix" result="effect1_dropShadow_247_1623"/>
<feBlend mode="normal" in="SourceGraphic" in2="effect1_dropShadow_247_1623" result="shape"/>
</filter>
</defs>
</svg>
