<svg width="46" height="46" viewBox="0 0 46 46" fill="none" xmlns="http://www.w3.org/2000/svg">
<path d="M8.85348 0.0412598C4.00409 0.0412598 0.0351562 4.0101 0.0351562 8.85958V36.2244C0.0351562 41.0738 4.004 45.0413 8.85348 45.0413H36.2183C41.0677 45.0413 45.0352 41.0738 45.0352 36.2244V8.85958C45.0352 4.01019 41.0677 0.0412598 36.2183 0.0412598H8.85348ZM11.0714 7.46717C13.3966 7.46717 14.8288 8.9936 14.873 11.0001C14.873 12.9623 13.3965 14.5316 11.0264 14.5316H10.9828C8.70189 14.5316 7.22763 12.9624 7.22763 11.0001C7.22763 8.99365 8.74651 7.46717 11.0714 7.46717H11.0714ZM31.1088 16.8452C35.5805 16.8452 38.9327 19.768 38.9327 26.0489V37.7742H32.1369V26.835C32.1369 24.0861 31.1533 22.2107 28.694 22.2107C26.8165 22.2107 25.6974 23.4747 25.206 24.6958C25.0265 25.1327 24.9824 25.7429 24.9824 26.354V37.7742H18.1865C18.1865 37.7742 18.2757 19.2435 18.1865 17.3248H24.9838V20.2206C25.8869 18.8273 27.5023 16.8452 31.1088 16.8452V16.8452ZM7.62849 17.3262H14.4243V37.7743H7.62849V17.3262V17.3262Z" fill="#333333"/>
</svg>
