<svg width="70" height="69" viewBox="0 0 70 69" fill="none" xmlns="http://www.w3.org/2000/svg">
<path d="M14.3176 9.40918C11.6818 9.40918 9.54495 11.5155 9.54492 14.1137C9.54495 16.712 11.6818 18.8183 14.3176 18.8183C16.9535 18.8183 19.0903 16.712 19.0904 14.1137C19.0903 11.5155 16.9535 9.40918 14.3176 9.40918ZM22.2722 12.5455V15.6819H25.454V12.5455H22.2722ZM28.6358 12.5455V15.6819H60.454V12.5455H28.6358ZM28.6358 18.8183V21.9546H38.1813V18.8183H28.6358ZM14.3176 28.2274C11.6817 28.2274 9.54492 30.3337 9.54492 32.9319C9.54492 35.5302 11.6817 37.6365 14.3176 37.6365C16.9535 37.6365 19.0904 35.5302 19.0904 32.9319C19.0904 30.3337 16.9535 28.2274 14.3176 28.2274ZM22.2722 31.3637V34.5001H25.454V31.3637H22.2722ZM28.6358 31.3637V34.5001H44.5449V31.3637H28.6358ZM28.6358 37.6365V40.7728H41.3631V37.6365H28.6358ZM14.3176 47.0455C11.6817 47.0455 9.54492 49.1518 9.54492 51.7501C9.54492 54.3483 11.6817 56.4546 14.3176 56.4546C16.9535 56.4546 19.0904 54.3483 19.0904 51.7501C19.0904 49.1518 16.9535 47.0455 14.3176 47.0455ZM22.2722 50.1819V53.3183H25.454V50.1819H22.2722ZM28.6358 50.1819V53.3183H60.454V50.1819H28.6358ZM28.6358 56.4546V59.591H50.9085V56.4546H28.6358Z" fill="#232629"/>
<path d="M60.4538 25.0908L47.7266 34.4999L60.4538 43.909V25.0908Z" fill="#EFC120"/>
</svg>
