<svg width="74" height="74" viewBox="0 0 74 74" fill="none" xmlns="http://www.w3.org/2000/svg">
<path d="M68.2918 29.7734H49.7918C49.4738 29.7734 49.2137 30.0336 49.2137 30.3516V33.8203C49.2137 34.1383 49.4738 34.3984 49.7918 34.3984H68.2918C68.6098 34.3984 68.8699 34.1383 68.8699 33.8203V30.3516C68.8699 30.0336 68.6098 29.7734 68.2918 29.7734ZM58.6082 39.6016H49.7918C49.4738 39.6016 49.2137 39.8617 49.2137 40.1797V43.6484C49.2137 43.9664 49.4738 44.2266 49.7918 44.2266H58.6082C58.9262 44.2266 59.1863 43.9664 59.1863 43.6484V40.1797C59.1863 39.8617 58.9262 39.6016 58.6082 39.6016ZM34.4932 23.3057H31.3641C30.916 23.3057 30.5547 23.667 30.5547 24.115V42.0369C30.5547 42.2971 30.6775 42.5355 30.8871 42.6873L41.6475 50.5354C42.0088 50.7955 42.5147 50.7232 42.7748 50.3619L44.632 47.8254V47.8182C44.8922 47.4568 44.8127 46.951 44.4514 46.6908L35.2953 40.0713V24.115C35.3025 23.667 34.934 23.3057 34.4932 23.3057Z" fill="#FCD54D"/>
<path d="M58.1594 48.6997H53.9825C53.5778 48.6997 53.1948 48.9092 52.978 49.2561C52.0602 50.7086 50.9907 52.0528 49.7622 53.2813C47.6448 55.3987 45.1805 57.0608 42.4417 58.217C39.6016 59.4166 36.5881 60.0237 33.4807 60.0237C30.3661 60.0237 27.3526 59.4166 24.5198 58.217C21.7809 57.0608 19.3167 55.3987 17.1993 53.2813C15.0819 51.1639 13.4198 48.6997 12.2635 45.9608C11.0639 43.128 10.4569 40.1145 10.4569 36.9999C10.4569 33.8852 11.0639 30.879 12.2635 28.0389C13.4198 25.3001 15.0819 22.8358 17.1993 20.7184C19.3167 18.601 21.7809 16.9389 24.5198 15.7827C27.3526 14.5831 30.3733 13.976 33.4807 13.976C36.5954 13.976 39.6088 14.5831 42.4417 15.7827C45.1805 16.9389 47.6448 18.601 49.7622 20.7184C50.9907 21.9469 52.0602 23.2911 52.978 24.7436C53.1948 25.0905 53.5778 25.3001 53.9825 25.3001H58.1594C58.6581 25.3001 58.976 24.7797 58.752 24.3389C54.0403 14.9661 44.4868 8.87408 33.8204 8.75123C18.2038 8.55611 5.23208 21.3399 5.20317 36.942C5.17427 52.5731 17.8424 65.2557 33.4735 65.2557C44.2772 65.2557 53.9897 59.142 58.752 49.6608C58.976 49.22 58.6508 48.6997 58.1594 48.6997Z" fill="#FCD54D"/>
</svg>
