<svg width="70" height="70" viewBox="0 0 70 70" fill="none" xmlns="http://www.w3.org/2000/svg">
<path d="M17.0006 13.2211C15.2506 17.1411 15.9418 24.1644 16.2218 29.0761C14.3318 30.1232 11.9052 28.2857 10.5314 28.2857C9.10224 28.2857 7.39599 29.2248 7.12766 30.6248C6.93516 31.634 7.38724 33.104 10.6306 34.3844C11.8847 34.8803 14.8685 35.4636 15.5597 37.0911C16.531 39.3778 10.5722 49.9332 1.21558 51.4732C0.862319 51.5316 0.54308 51.7184 0.319142 51.9978C0.0952049 52.2772 -0.0176488 52.6294 0.00224524 52.9869C0.165579 55.8307 6.54141 56.9448 9.36766 57.3823C9.65641 57.7732 9.88974 59.424 10.2602 60.6811C10.4264 61.244 10.8552 61.9178 11.9577 61.9178C13.3956 61.9178 15.7843 60.8094 19.9435 61.4977C24.021 62.1773 27.8535 67.9582 35.2122 67.9582C42.0518 67.9582 46.1322 62.1511 50.0581 61.4977C52.3302 61.1215 54.2814 61.2411 56.4631 61.6669C57.9652 61.9615 59.3127 62.1248 59.7414 60.649C60.1177 59.3744 60.3481 57.7557 60.631 57.3736C63.431 56.939 69.836 55.8278 69.9964 52.984C70.0163 52.6265 69.9035 52.2743 69.6795 51.9949C69.4556 51.7155 69.1363 51.5287 68.7831 51.4703C59.5839 49.9536 53.4443 39.4303 54.4389 37.0882C55.1272 35.4636 58.0906 34.8861 59.3681 34.3815C61.7422 33.4453 62.9322 32.2932 62.906 30.9603C62.8739 29.254 60.8206 28.2361 59.3097 28.2361C57.7727 28.2361 55.5647 30.0561 53.7768 29.0703C54.0568 24.1178 54.7452 17.1265 52.9981 13.2094C49.6877 5.79234 42.3231 2.0415 34.9614 2.0415C27.6464 2.0415 20.3372 5.73984 17.0006 13.2211Z" fill="#B7B7B7"/>
</svg>
