<svg width="70" height="70" viewBox="0 0 70 70" fill="none" xmlns="http://www.w3.org/2000/svg">
<path fill-rule="evenodd" clip-rule="evenodd" d="M70 35C70 54.3288 54.3288 70 35 70C15.6713 70 0 54.3288 0 35C0 15.6713 15.6713 0 35 0C54.3288 0 70 15.6713 70 35ZM36.2542 25.8388C32.8504 27.2533 26.0458 30.1846 15.8433 34.6296C14.1867 35.2887 13.3175 35.9333 13.2388 36.5633C13.1046 37.6308 14.4404 38.0508 16.2546 38.6196C16.5025 38.6983 16.7592 38.7771 17.0217 38.8646C18.8096 39.445 21.2129 40.1246 22.4613 40.1508C23.5958 40.1742 24.8617 39.7075 26.2588 38.7508C35.7904 32.3138 40.7108 29.0617 41.02 28.9917C41.2388 28.9421 41.5421 28.8779 41.7463 29.0617C41.9504 29.2425 41.93 29.5867 41.9096 29.68C41.7754 30.2429 36.5429 35.1108 33.8304 37.6308C32.9846 38.4154 32.3867 38.9725 32.2642 39.1008C31.99 39.3838 31.71 39.655 31.4417 39.9146C29.7792 41.5129 28.5367 42.7146 31.5117 44.6746C32.9408 45.6167 34.0842 46.3954 35.2246 47.1713C36.47 48.02 37.7125 48.8658 39.3225 49.9217C39.7308 50.19 40.1217 50.4671 40.5037 50.7383C41.9533 51.7738 43.2571 52.7012 44.8671 52.5554C45.8004 52.4679 46.7687 51.59 47.2587 48.9679C48.4167 42.7671 50.6975 29.3388 51.2254 23.8029C51.2575 23.3433 51.238 22.8815 51.1671 22.4263C51.1246 22.0585 50.9456 21.7202 50.6654 21.4783C50.2483 21.1371 49.6008 21.0642 49.3092 21.07C47.9938 21.0933 45.9754 21.7963 36.2542 25.8388Z" fill="#B7B7B7"/>
</svg>
