<svg width="70" height="70" viewBox="0 0 70 70" fill="none" xmlns="http://www.w3.org/2000/svg">
<path d="M68.9583 14.3998C66.5228 15.4789 63.9066 16.2081 61.1562 16.5377C63.9941 14.8396 66.1173 12.167 67.1295 9.01852C64.4632 10.6022 61.5451 11.717 58.502 12.3144C56.4556 10.1294 53.7451 8.68114 50.7913 8.19448C47.8375 7.70783 44.8056 8.20999 42.1664 9.623C39.5273 11.036 37.4284 13.2808 36.1958 16.0089C34.9631 18.737 34.6656 21.7957 35.3495 24.7102C29.9469 24.4389 24.6618 23.0347 19.837 20.5887C15.0122 18.1426 10.7557 14.7094 7.34367 10.5119C6.177 12.5244 5.50617 14.8577 5.50617 17.3427C5.50487 19.5798 6.05577 21.7826 7.10998 23.7557C8.1642 25.7287 9.68914 27.4111 11.5495 28.6535C9.39198 28.5849 7.28205 28.0019 5.39534 26.9531V27.1281C5.39512 30.2657 6.48043 33.3067 8.46712 35.7352C10.4538 38.1636 13.2195 39.83 16.2949 40.4514C14.2935 40.9931 12.1951 41.0729 10.1583 40.6848C11.026 43.3845 12.7162 45.7453 14.9922 47.4366C17.2683 49.128 20.0163 50.0653 22.8516 50.1173C18.0386 53.8955 12.0946 55.945 5.97575 55.936C4.89187 55.9363 3.80889 55.873 2.73242 55.7464C8.94339 59.7399 16.1734 61.8592 23.5574 61.851C48.5533 61.851 62.2178 41.1485 62.2178 23.1935C62.2178 22.6102 62.2033 22.021 62.177 21.4377C64.8349 19.5155 67.1292 17.1353 68.9524 14.4085L68.9583 14.3998Z" fill="#B7B7B7"/>
</svg>
