<svg width="70" height="70" viewBox="0 0 70 70" fill="none" xmlns="http://www.w3.org/2000/svg">
<path d="M19.6875 15.3125C12.4688 15.3125 6.5625 21.2187 6.5625 28.4375C6.5625 32.7775 8.69969 36.6406 11.9634 39.0337C6.195 41.895 2.1875 47.8275 2.1875 54.6875H6.5625C6.5625 47.4162 12.4163 41.5625 19.6875 41.5625C26.9587 41.5625 32.8125 47.4162 32.8125 54.6875H37.1875C37.1875 47.4162 43.0413 41.5625 50.3125 41.5625C57.5837 41.5625 63.4375 47.4162 63.4375 54.6875H67.8125C67.8125 47.8253 63.805 41.895 58.0366 39.0337C59.7067 37.8167 61.0663 36.2229 62.0047 34.3818C62.9432 32.5406 63.434 30.504 63.4375 28.4375C63.4375 21.2187 57.5312 15.3125 50.3125 15.3125C43.0938 15.3125 37.1875 21.2187 37.1875 28.4375C37.1875 32.7775 39.3247 36.6406 42.5884 39.0337C39.3923 40.6051 36.7468 43.1073 35 46.2109C33.2532 43.1073 30.6076 40.6051 27.4116 39.0337C29.0817 37.8167 30.4413 36.2229 31.3797 34.3818C32.3182 32.5406 32.809 30.504 32.8125 28.4375C32.8125 21.2187 26.9062 15.3125 19.6875 15.3125ZM19.6875 19.6875C24.5503 19.6875 28.4375 23.5747 28.4375 28.4375C28.4375 33.3003 24.5503 37.1875 19.6875 37.1875C14.8247 37.1875 10.9375 33.3003 10.9375 28.4375C10.9375 23.5747 14.8247 19.6875 19.6875 19.6875ZM50.3125 19.6875C55.1753 19.6875 59.0625 23.5747 59.0625 28.4375C59.0625 33.3003 55.1753 37.1875 50.3125 37.1875C45.4497 37.1875 41.5625 33.3003 41.5625 28.4375C41.5625 23.5747 45.4497 19.6875 50.3125 19.6875Z" fill="#FCD64D"/>
</svg>
